PathFileType	4	(X/Y/Z)	C:\MyCloud\GitHub\OpenSimScripting\Matlab\Data\Gait2354_Simbody\Hip_Kinetic_SLOW_Crop_Marker.trc	
DataRate	CameraRate	NumFrames	NumMarkers	Units	OrigDataRate	OrigDataStartFrame	OrigNumFrames
100	100	11	34	mm	100	2272	1050
Frame#	Time	Torso2			Torso3			Torso4			Hip1			Hip2			LThigh1			LThigh2			LThigh3			LThigh4			RThigh1			RThigh2			RThigh3			RThigh4			RTibia1			RTibia2			RTibia3			RTibia4			LTibia1			LTibia2			LTibia3			LTibia4			LFoot1			LFoot2			LFoot3			LFoot4			RFoot1			RFoot2			RFoot3			RFoot4			C7			Torso5			C_31			C_32			C_33			
		X1	Y1	Z1	X2	Y2	Z2	X3	Y3	Z3	X4	Y4	Z4	X5	Y5	Z5	X6	Y6	Z6	X7	Y7	Z7	X8	Y8	Z8	X9	Y9	Z9	X10	Y10	Z10	X11	Y11	Z11	X12	Y12	Z12	X13	Y13	Z13	X14	Y14	Z14	X15	Y15	Z15	X16	Y16	Z16	X17	Y17	Z17	X18	Y18	Z18	X19	Y19	Z19	X20	Y20	Z20	X21	Y21	Z21	X22	Y22	Z22	X23	Y23	Z23	X24	Y24	Z24	X25	Y25	Z25	X26	Y26	Z26	X27	Y27	Z27	X28	Y28	Z28	X29	Y29	Z29	X30	Y30	Z30	X31	Y31	Z31	X32	Y32	Z32	X33	Y33	Z33	X34	Y34	Z34	

2272	2.63000	532.75287	-285.33923	-1172.18164	507.70761	-291.02789	-1108.69519	551.85974	-435.37747	-1224.14917	270.73160	-451.68677	-827.72333	243.95589	-139.16528	-855.41095	143.26495	-505.56082	-786.14270	128.04500	-532.82733	-399.48376	138.47433	-390.71341	-390.20810	236.77187	-484.09329	-656.90167	154.99113	-114.30936	-779.88318	127.89557	-96.74023	-398.79584	116.35519	-237.46277	-378.81165	207.30450	-142.39272	-488.18750	92.74311	-81.86157	-345.23477	42.42768	-94.08120	63.59212	85.23626	-181.83801	49.68866	153.36551	-117.23652	-310.06534	93.23444	-547.15070	-361.79993	31.14808	-548.06793	52.04909	79.41402	-463.93976	43.18540	147.03169	-515.61963	-312.62048	7.16252	-487.09433	28.20869	94.99046	-583.88171	162.42265	191.15378	-532.78772	194.61165	149.46301	-480.92328	170.35359	11.64607	-152.05113	30.27133	114.23559	-57.03432	150.96030	191.24146	-102.92165	195.43573	150.14064	-155.99329	181.04359	497.85535	-304.80017	-1352.50720	539.23914	-147.42120	-1238.24194	0.00000	0.00000	0.00000	0.00000	0.00000	0.00000	0.00000	0.00000	0.00000	
2273	2.64000	532.26910	-285.39139	-1172.56970	507.28082	-291.04269	-1109.04822	551.28131	-435.44080	-1224.47876	270.53656	-451.72296	-827.75793	243.96021	-139.12900	-855.34357	143.35066	-505.43622	-785.97546	127.95554	-533.02808	-399.55017	138.46176	-390.66211	-390.18362	236.78485	-484.05157	-656.81744	154.98645	-114.32943	-779.79993	127.95324	-96.73814	-398.70599	116.39697	-237.46603	-378.76041	207.32611	-142.37881	-488.05997	92.80032	-81.88493	-345.17630	42.48523	-94.08801	63.64691	85.27988	-181.88809	49.80612	153.34044	-117.28347	-309.99524	93.24966	-547.12317	-361.72556	30.54856	-547.93097	52.25190	79.49149	-463.97452	43.23989	146.95959	-515.69165	-312.61154	7.18021	-487.11618	28.22735	94.98502	-583.96283	162.44313	191.10042	-532.89899	194.69287	149.42131	-481.01874	170.46573	11.71571	-152.12354	30.27486	114.19338	-57.11200	151.05576	191.21783	-103.01301	195.56927	150.15820	-156.07919	181.15091	497.00827	-304.97400	-1352.61084	538.70709	-147.44589	-1238.67224	0.00000	0.00000	0.00000	0.00000	0.00000	0.00000	0.00000	0.00000	0.00000	
2274	2.65000	531.74774	-285.35379	-1172.99463	506.49371	-291.18985	-1109.49609	550.55798	-435.57877	-1224.98767	270.60812	-451.73480	-827.66870	243.88509	-139.09105	-855.28235	143.23325	-505.52374	-785.92139	127.94159	-532.93817	-399.42267	138.39441	-390.65024	-390.08914	236.83302	-483.99210	-656.67657	154.92096	-114.29341	-779.72491	127.93470	-96.68682	-398.62848	116.41764	-237.47684	-378.71185	207.31851	-142.32082	-487.94492	92.80060	-81.81150	-345.11606	42.43007	-94.07762	63.75181	85.20671	-181.84529	49.89742	153.34425	-117.24571	-309.91064	93.25410	-547.15320	-361.65359	31.13029	-547.98260	52.16116	79.42773	-464.04346	43.28129	146.92415	-515.63440	-312.57297	7.19877	-487.09311	28.27288	94.92120	-583.85425	162.49948	191.02541	-532.95923	194.84181	149.38536	-481.01889	170.54338	11.68876	-152.09833	30.36370	114.34026	-56.98797	151.21423	191.12036	-103.03748	195.69725	150.15596	-156.14058	181.23070	496.35577	-304.91815	-1353.07214	537.87140	-147.46994	-1239.02454	0.00000	0.00000	0.00000	0.00000	0.00000	0.00000	0.00000	0.00000	0.00000	
2275	2.66000	531.27869	-285.44711	-1173.43188	506.14755	-291.16080	-1109.85144	549.92944	-435.63065	-1225.50574	270.73553	-451.73080	-827.58398	243.90086	-139.07277	-855.19464	143.24519	-505.43066	-785.82562	128.20818	-532.73712	-399.18213	138.40672	-390.55740	-389.96973	236.88664	-483.85400	-656.51404	154.95078	-114.28815	-779.64795	127.97826	-96.68520	-398.52237	116.37533	-237.42711	-378.63565	207.35544	-142.22939	-487.82181	92.84264	-81.83096	-345.03680	42.47184	-94.08430	63.83363	85.23801	-181.84094	49.95969	153.44765	-117.23930	-309.82532	93.25520	-547.14044	-361.59738	31.12322	-547.94086	52.23141	79.52186	-463.96152	43.39507	147.03462	-515.57526	-312.42099	7.20099	-487.10617	28.33609	94.83160	-583.90839	162.58244	190.95677	-532.98438	194.94072	149.33936	-481.04547	170.62103	11.76385	-152.08612	30.38960	114.36341	-57.02501	151.34428	191.10521	-103.06288	195.86766	149.99332	-156.14281	181.40092	495.60727	-305.00940	-1353.40552	537.27972	-147.56209	-1239.49438	0.00000	0.00000	0.00000	0.00000	0.00000	0.00000	0.00000	0.00000	0.00000	
2276	2.67000	530.79852	-285.57986	-1173.86072	505.81784	-291.27795	-1110.35046	549.32324	-435.66635	-1225.91785	270.70990	-451.63486	-827.53900	243.89664	-139.12500	-855.14417	143.36877	-505.34015	-785.71539	127.81709	-533.11566	-399.39139	138.37894	-390.53961	-389.88647	236.95520	-483.83719	-656.43036	155.00534	-114.33366	-779.61621	127.88088	-96.72681	-398.33386	116.42242	-237.41183	-378.60190	207.46013	-142.17621	-487.74106	92.88605	-81.88729	-344.96979	42.53719	-94.12643	63.89698	85.34836	-181.93199	50.05431	153.53638	-117.27237	-309.75381	93.17156	-546.99756	-361.50494	31.11178	-547.86591	52.30328	79.58299	-463.97012	43.46612	146.95670	-515.68872	-312.43527	7.21316	-487.13678	28.35512	94.89497	-583.94977	162.61964	190.94595	-532.98621	195.06886	149.34412	-481.05579	170.69870	11.82138	-152.17215	30.38254	114.35754	-57.01175	151.44104	191.07353	-103.17437	195.97806	149.99741	-156.18951	181.48410	494.95157	-305.09326	-1353.83105	536.59308	-147.70476	-1240.02173	0.00000	0.00000	0.00000	0.00000	0.00000	0.00000	0.00000	0.00000	0.00000	
2277	2.68000	530.31677	-285.66470	-1174.29565	505.42493	-291.34769	-1110.82471	548.66461	-435.80774	-1226.54932	270.63672	-451.70834	-827.61047	243.94768	-139.03156	-855.13263	143.53241	-505.26505	-785.60114	128.22418	-532.83264	-399.03391	138.39972	-390.52304	-389.85757	236.95268	-483.81796	-656.40576	155.04318	-114.29887	-779.59259	128.05537	-96.71086	-398.41367	116.45484	-237.50569	-378.60925	207.46106	-142.16527	-487.71954	92.91560	-81.86510	-344.95923	42.54980	-94.11937	63.94607	85.26346	-181.90804	50.13796	153.50269	-117.29259	-309.73633	93.19440	-547.04877	-361.44095	31.33739	-547.87543	52.33573	78.99640	-464.28088	43.14193	146.87897	-515.72504	-312.42896	7.26269	-487.12619	28.37050	94.85690	-583.83954	162.69632	190.88391	-532.92841	195.18079	149.32457	-481.04172	170.78781	11.86151	-152.27888	30.36775	114.33713	-57.05120	151.54375	191.01657	-103.21724	196.10320	150.02141	-156.27357	181.52859	494.34827	-305.10037	-1354.46802	536.00940	-147.65999	-1240.57971	0.00000	0.00000	0.00000	0.00000	0.00000	0.00000	0.00000	0.00000	0.00000	
2278	2.69000	529.82037	-285.74426	-1174.78101	505.16138	-291.31641	-1111.20911	548.12445	-435.77188	-1227.02002	270.73312	-451.64856	-827.58063	243.86433	-139.02325	-855.10162	143.71544	-505.14584	-785.43359	127.97144	-532.74823	-398.89297	138.37479	-390.47635	-389.78479	237.03136	-483.71014	-656.28308	154.99977	-114.29502	-779.51636	128.01782	-96.67073	-398.37186	116.43156	-237.49220	-378.53799	207.58980	-142.09210	-487.62799	92.91872	-81.84443	-344.91040	42.53985	-94.09396	64.00237	85.26160	-181.84724	50.15254	153.57477	-117.25120	-309.67059	93.29480	-547.14972	-361.42694	31.24310	-547.86157	52.39762	79.63523	-463.88342	43.57986	146.94650	-515.63013	-312.32489	7.26298	-487.09229	28.41722	94.76598	-583.81842	162.77917	190.83632	-532.86639	195.26836	149.28358	-481.00369	170.85995	11.84114	-152.17342	30.48536	114.31796	-57.03097	151.60851	190.97249	-103.21256	196.20912	149.93098	-156.25969	181.60944	493.71466	-305.17566	-1354.97095	535.44147	-147.65358	-1241.06641	0.00000	0.00000	0.00000	0.00000	0.00000	0.00000	0.00000	0.00000	0.00000	
2279	2.70000	529.40271	-285.83377	-1175.26685	504.84286	-291.41348	-1111.68225	547.54132	-435.78775	-1227.42078	270.77689	-451.62027	-827.60516	243.94473	-139.06058	-855.10626	143.75804	-505.09659	-785.39478	128.09909	-532.73181	-398.83279	138.34145	-390.41638	-389.71518	237.03766	-483.63412	-656.24420	155.01755	-114.38345	-779.46875	127.90279	-96.75180	-398.21176	116.42038	-237.42537	-378.49554	207.68849	-142.07295	-487.54169	92.98938	-81.89456	-344.83429	42.54401	-94.16305	64.05120	85.41055	-181.97482	50.24214	153.61134	-117.28951	-309.62723	93.25572	-547.04437	-361.38013	31.22063	-547.79285	52.43748	79.69044	-463.85373	43.64785	146.98036	-515.61292	-312.26239	7.25348	-487.12750	28.46381	94.81965	-583.82489	162.81467	190.85336	-532.76788	195.35814	149.25183	-480.92590	170.92583	11.87601	-152.18948	30.46008	114.33129	-57.10220	151.66263	190.95808	-103.23452	196.28877	149.93401	-156.30785	181.65857	493.47922	-305.60620	-1355.32129	535.10919	-147.72806	-1241.59741	0.00000	0.00000	0.00000	0.00000	0.00000	0.00000	0.00000	0.00000	0.00000	
2280	2.71000	528.98303	-285.84879	-1175.71838	504.45847	-291.48410	-1112.12988	546.96790	-435.83411	-1227.93152	270.64462	-451.61411	-827.69452	243.97765	-139.03799	-855.17047	143.81473	-505.07526	-785.34692	128.12656	-532.67920	-398.84058	138.32458	-390.38611	-389.72198	237.02220	-483.62003	-656.27441	155.04962	-114.37882	-779.43335	127.94537	-96.73317	-398.20825	116.45322	-237.50931	-378.52081	207.70006	-142.12569	-487.55087	93.03197	-81.90563	-344.82462	42.57010	-94.18620	64.06483	85.34572	-181.97034	50.26760	153.55286	-117.37584	-309.62357	93.24671	-547.03027	-361.34448	31.23604	-547.79321	52.44621	79.13158	-464.08203	43.32543	146.90721	-515.62305	-312.31580	7.27366	-487.13354	28.43710	94.94587	-583.81348	162.83156	190.86951	-532.69989	195.39639	149.21637	-480.86728	170.92867	11.94420	-152.37213	30.35203	114.29189	-57.09359	151.66957	190.96436	-103.30631	196.30441	149.92848	-156.33080	181.66998	492.50748	-305.24802	-1355.72559	534.69586	-147.69771	-1242.14600	0.00000	0.00000	0.00000	0.00000	0.00000	0.00000	0.00000	0.00000	0.00000	
2281	2.72000	528.57904	-285.79721	-1176.14319	504.07788	-291.49426	-1112.61646	546.51855	-435.93527	-1228.51514	270.70670	-451.60550	-827.74854	243.99097	-139.00800	-855.21979	143.77026	-505.08148	-785.30841	127.98710	-532.76404	-398.84427	138.33444	-390.33936	-389.71875	237.01006	-483.58066	-656.28339	155.06993	-114.34542	-779.42413	128.08955	-96.73266	-398.30881	116.41080	-237.53421	-378.50894	207.72273	-142.14487	-487.53436	92.95130	-81.88940	-344.86398	42.56560	-94.14502	64.05594	85.24337	-181.90845	50.26420	153.52296	-117.34811	-309.62531	93.27832	-546.99652	-361.33206	31.37797	-547.76263	52.47241	79.04834	-464.07825	43.33076	146.92776	-515.52759	-312.28299	7.32903	-487.04514	28.46725	94.88115	-583.65784	162.85951	190.88390	-532.61975	195.40771	149.22554	-480.79889	170.92213	11.95242	-152.35057	30.38812	114.32604	-57.09980	151.69708	190.94106	-103.28574	196.29002	149.88643	-156.29402	181.67775	491.77267	-305.24997	-1356.12695	533.98077	-147.66841	-1242.55884	0.00000	0.00000	0.00000	0.00000	0.00000	0.00000	0.00000	0.00000	0.00000	
2282	2.73000	528.27216	-285.84921	-1176.57703	503.91089	-291.49481	-1112.95068	546.10144	-436.04257	-1229.07727	270.87088	-451.64944	-827.82825	244.00984	-139.06734	-855.25024	143.67296	-505.09576	-785.35669	128.22676	-532.44940	-398.67807	138.31020	-390.29831	-389.67328	237.07161	-483.51581	-656.24823	155.08557	-114.41437	-779.40479	128.10776	-96.75481	-398.28003	116.35680	-237.49106	-378.47556	207.80081	-142.12950	-487.46350	93.00247	-81.91245	-344.80716	42.57469	-94.17971	64.09531	85.26733	-181.98047	50.28141	153.61992	-117.35802	-309.60449	93.27686	-546.95111	-361.33475	31.31389	-547.75287	52.48211	79.75350	-463.64514	43.73991	147.01076	-515.45355	-312.22968	7.26749	-487.08212	28.48990	95.01710	-583.63306	162.84384	190.89108	-532.50256	195.43103	149.21423	-480.74539	170.96146	11.87714	-152.20177	30.45674	114.37103	-57.12585	151.65639	190.99756	-103.32036	196.30327	149.84428	-156.34496	181.72328	490.82184	-305.22754	-1356.26221	533.54962	-147.72638	-1243.02771	0.00000	0.00000	0.00000	0.00000	0.00000	0.00000	0.00000	0.00000	0.00000	
